<svg xmlns="http://www.w3.org/2000/svg" viewBox="0 0 277.3 149.6">
  <path fill="#f89939" d="M212.7 127c33.9-33.8 39.5-83 12.6-110-27-26.9-76.2-21.3-110 12.6-34 33.9-24.2 98.6-12.7 110 9.3 9.4 76.2 21.4 110.1-12.5z"/>
  <path fill="#3499cd" d="M73.7 78.2c-19.6-19.7-48.2-23-63.8-7.3-15.6 15.6-12.4 44.2 7.3 63.8 19.6 19.7 57.2 14 63.8 7.3 5.4-5.4 12.4-44.2-7.3-63.8z"/>
  <g fill="#010101">
    <path d="M141.5 118.8a54.6 54.6 0 01-9.1 7 15 15 0 01-7.5 2.3 8 8 0 01-6.6-3.1c-1.7-2.2-2.5-5-2.5-8.6a67 67 0 013.5-19.3c2.3-7.5 5.1-14.4 8.4-20.7l9.8-3.7.7-.1c.7 0 1.3.5 1.8 1.6s.7 2.6.7 4.4c0 5.2-1.2 10.3-3.6 15.1-2.4 5-6.2 10.1-11.3 15.7a85 85 0 00-.3 5.4c0 2.3.4 4 1.3 5.3.8 1.3 1.9 2 3.2 2 1.4 0 2.9-.5 4.4-1.5 1.6-1 4-3 7.1-6.2v4.4zm-14.6-15c3.2-3.6 5.8-7.6 7.9-12.1 2-4.5 3-8.3 3-11.6 0-.9-.2-1.7-.4-2.2-.3-.6-.7-.9-1.1-.9-1 0-2.3 2.4-4.1 7-1.8 4.8-3.6 11.3-5.3 19.8z"/>
    <path d="M170.2 118.8a47 47 0 01-8.7 7 16.5 16.5 0 01-8.6 2.3c-3.5 0-6.3-1-8.4-3.3a12.1 12.1 0 01-3.2-8.8 22 22 0 015.6-14.7c3.8-4.3 8-6.5 12.5-6.5 2.4 0 4.3.6 5.7 1.8a6 6 0 012.2 4.8c0 5.3-5.6 9.6-16.9 13 1 4.9 3.7 7.4 8 7.4 1.7 0 3.3-.5 4.9-1.4 1.5-.9 3.8-2.9 6.9-6v4.4zm-20-7.1c6.5-1.8 9.7-5.2 9.7-10.2 0-2.4-.9-3.7-2.7-3.7-1.6 0-3.3 1.3-4.8 3.9a19.3 19.3 0 00-2.3 10z"/>
    <path d="M211 118.8c-4 3.9-7 6.4-8.7 7.6a9.2 9.2 0 01-5 1.7c-4 0-6-3.5-5.7-10.7-2.6 3.7-5 6.4-7.1 8.1a10.6 10.6 0 01-6.7 2.6c-2.2 0-4.1-1-5.7-3.1a12.6 12.6 0 01-2.4-7.8c0-3.8 1-7.5 3.2-11a26 26 0 018-8.4c3.4-2.1 6.3-3.2 8.8-3.2 3.2 0 5.4 1.5 6.7 4.4l7.9-4.3h2.1l-3.4 11.2a48.7 48.7 0 00-2.6 11.6c0 2.2.8 3.3 2.3 3.3 1 0 2.1-.5 3.3-1.6 1.2-1 3-2.6 5-4.8v4.4zm-28 2.1c2.6 0 5-2.2 7.3-6.5 2.2-4.4 3.4-8.4 3.4-12 0-1.5-.4-2.6-1-3.4a3.1 3.1 0 00-2.6-1.2c-2.5 0-5 2.1-7.2 6.5a26 26 0 00-3.4 12c0 1.3.3 2.5 1 3.3.6.9 1.5 1.3 2.6 1.3z"/>
    <path d="M239.7 118.8c-6.4 6.3-11.3 9.4-14.8 9.4a5 5 0 01-4-2c-1-1.3-1.6-2.9-1.6-4.8 0-3.6 2-8.5 5.8-14.5-1.9 1-4 1.6-6.2 2a44 44 0 01-7.8 9.9h-.9v-3.5c2-2 3.8-4.2 5.4-6.6-2.2-1-3.3-2.4-3.3-4.3 0-2 .7-4.1 2-6.4 1.4-2.2 3.2-3.3 5.6-3.3 2 0 3 1 3 3 0 1.7-.6 4-1.8 7 4.3-.5 8-3.7 11.1-9.8l3.5-.1-3.5 9.8-3 8.4c-.3 1.5-.6 2.8-.6 4 0 1 .3 2 .8 2.6.5.6 1.2 1 2 1 1 0 1.8-.4 2.6-1 .9-.7 2.8-2.4 5.7-5.2v4.4z"/>
    <path d="M277.3 118.8c-5.9 6.2-11 9.3-15.1 9.3-1.8 0-3.1-.6-4.2-1.8a7 7 0 01-1.6-4.8c0-2.7 1.2-6.9 3.4-12.5 1.2-3 1.8-5 1.8-5.8 0-.8-.3-1.2-1-1.2a3 3 0 00-1.4.5l-1.8 1.5a43 43 0 00-4.4 4.6l-2.1 2.5a7.9 7.9 0 00-1.8 3.7 58 58 0 00-.9 11.4l-8.5 2-.4-7.7c0-4.1.5-8 1.5-11.7 1-3.6 2.5-7.8 4.6-12.4l9.3-1.8c-2 5.3-3.2 9.5-3.8 12.5 4.1-4.7 7.5-7.9 10-9.7 2.4-1.8 4.6-2.7 6.5-2.7 1.3 0 2.4.5 3.2 1.5.9 1 1.3 2.2 1.3 3.7 0 2.4-1 6.4-3.3 12a28.4 28.4 0 00-2.2 7.6c0 1.5.6 2.3 1.9 2.3 1.8 0 4.8-2.5 9-7.4z"/>
  </g>
  <text x="153.3" y="81.9" fill="#fff" font-family="Helvetica" font-size="23.1" style="line-height:0%">
    scikit
  </text>
</svg>
