<?xml version="1.0" encoding="UTF-8"?>
<svg width="32" height="18" enable-background="new 0 0 43.98 29.1" version="1.1" viewBox="0 0 32 18" xmlns="http://www.w3.org/2000/svg" xmlns:cc="http://creativecommons.org/ns#" xmlns:dc="http://purl.org/dc/elements/1.1/" xmlns:rdf="http://www.w3.org/1999/02/22-rdf-syntax-ns#">
 <metadata>
  <rdf:RDF>
   <cc:Work rdf:about="">
    <dc:format>image/svg+xml</dc:format>
    <dc:type rdf:resource="http://purl.org/dc/dcmitype/StillImage"/>
    <dc:title/>
   </cc:Work>
  </rdf:RDF>
 </metadata>
 <g transform="matrix(1 0 0 1 -6.7401 -5.77)">
  <path d="m9.99 10.89v-4.48h-3v11.62h3v-4.76h4.34v4.76h3v-11.62h-3v4.48z"/>
  <g transform="translate(18.827 24)" fill="#231f20">
   <path d="m3.97-2.33 1.29-1.21c0.85-0.78 1.35-1.48 1.35-2.67 0-1.82-1.47-2.97-3.21-2.97-1.96 0-3.18 1.3-3.24 3.22h2.38c-0.02-0.13-0.04-0.25-0.04-0.36 0-0.57 0.32-1.02 0.9-1.02 0.57 0 0.95 0.55 0.95 1.09 0 0.77-0.46 1.52-0.95 2.05l-3.4 3.72h6.7v-1.84h-2.73"/>
   <path d="m13.4-15.05c1.79 0 3.26 1.46 3.26 3.07 0 2-1.47 3.47-3.26 3.47s-3.26-1.46-3.26-3.47c0-1.61 1.47-3.07 3.26-3.07m0-2.93c-3.33 0-6.39 2.47-6.39 5.98 0 3.76 2.68 6.41 6.39 6.41s6.39-2.65 6.39-6.41c0-3.51-3.06-5.98-6.39-5.98"/>
  </g>
 </g>
</svg>
