<svg xmlns="http://www.w3.org/2000/svg" width="770" height="600">
  <rect width="100%" height="100%" fill="white"/>
  <g transform="matrix(3.76271 0 0 3.76271 75.506 -211.528)">
    <path fill="#0013a0" d="M72.551 108.119l-.656.962s.711.464 1.015 1.676c.292 1.165.182 3.05-1.721 5.905a8.293 8.293 0 00-3.363-.756c-.605-3.348-1.753-5.03-2.884-5.844a3.601 3.601 0 00-1.651-.67 2.713 2.713 0 00-.787.013l.246 1.14s.117-.032.396.003c.28.035.673.141 1.116.46.806.58 1.818 1.913 2.391 4.966a8.317 8.317 0 00-4.332 1.918c-1.866-1.74-3.54-2.04-4.748-1.762-1.303.3-2.036 1.215-2.036 1.215l.906.731s.493-.602 1.391-.809c.827-.19 2.023-.084 3.654 1.436a8.354 8.354 0 00-2.13 5.58c0 4.618 3.75 8.38 8.36 8.38 4.611 0 8.364-3.762 8.364-8.38a8.383 8.383 0 00-3.868-7.06c1.974-3.001 2.205-5.235 1.825-6.749-.399-1.59-1.488-2.355-1.488-2.355zm19.84 0s-1.092.765-1.49 2.355c-.38 1.514-.15 3.747 1.826 6.75a8.383 8.383 0 00-3.867 7.059c0 4.618 3.752 8.38 8.362 8.38s8.362-3.762 8.362-8.38c0-2.141-.807-4.097-2.131-5.58 1.631-1.52 2.828-1.626 3.655-1.436.898.207 1.39.809 1.39.809l.906-.731s-.735-.915-2.037-1.215c-1.208-.278-2.883.022-4.748 1.76a8.317 8.317 0 00-4.333-1.916c.574-3.053 1.588-4.387 2.394-4.967.442-.318.835-.424 1.115-.459.28-.035.397-.004.397-.004l.246-1.139s-.343-.069-.787-.013c-.444.055-1.04.229-1.653.67-1.132.814-2.278 2.496-2.883 5.844a8.292 8.292 0 00-3.362.756c-1.903-2.855-2.014-4.74-1.722-5.905.305-1.212 1.016-1.676 1.016-1.676zm-24.672 9.25a6.894 6.894 0 016.896 6.914 6.896 6.896 0 01-6.896 6.915c-3.817 0-6.897-3.087-6.897-6.915a6.894 6.894 0 016.897-6.915zm29.503 0a6.894 6.894 0 016.897 6.914 6.896 6.896 0 01-6.897 6.915 6.897 6.897 0 01-6.898-6.915 6.896 6.896 0 016.898-6.915zm-29.503 2.138c-2.627 0-4.766 2.144-4.766 4.776 0 2.63 2.139 4.777 4.766 4.777 2.627 0 4.767-2.146 4.767-4.777 0-2.632-2.14-4.776-4.767-4.776zm29.503 0c-2.627 0-4.767 2.144-4.767 4.776 0 2.63 2.14 4.777 4.767 4.777 2.627 0 4.767-2.146 4.767-4.777 0-2.632-2.14-4.776-4.767-4.776zm10.233 17.612a.959.959 0 00-.96.96.959.959 0 00.96.958.959.959 0 00.959-.959.959.959 0 00-.96-.959zm-49.114.761a.959.959 0 00-.96.959.959.959 0 00.96.959.959.959 0 00.96-.96.959.959 0 00-.96-.958zm41.838 2.282a.959.959 0 00-.959.959.959.959 0 00.959.959.959.959 0 00.959-.96.959.959 0 00-.96-.958zm-46.567 2.646a.959.959 0 00-.96.96.959.959 0 00.96.958.959.959 0 00.96-.959.959.959 0 00-.96-.959zm12.04.463a.959.959 0 00-.96.959.959.959 0 00.96.959.959.959 0 00.958-.96.959.959 0 00-.959-.958zm45.242.132a.959.959 0 00-.96.959.959.959 0 00.96.96.959.959 0 00.96-.96.959.959 0 00-.96-.96zm-5.159.463a.959.959 0 00-.959.96.959.959 0 00.96.958.959.959 0 00.958-.959.959.959 0 00-.959-.96zm-46.038 1.191a.959.959 0 00-.96.96.959.959 0 00.96.958.959.959 0 00.959-.959.959.959 0 00-.96-.959zm42.135 4.43a.959.959 0 00-.96.96.959.959 0 00.96.96.959.959 0 00.96-.96.959.959 0 00-.96-.96zm-45.31.928a.959.959 0 00-.96.959.959.959 0 00.96.96.959.959 0 00.959-.96.959.959 0 00-.96-.96zm51.33.463a.959.959 0 00-.959.959.959.959 0 00.96.96.959.959 0 00.958-.96.959.959 0 00-.959-.96zm-42.863.264a.959.959 0 00-.959.96.959.959 0 00.96.958.959.959 0 00.958-.959.959.959 0 00-.959-.959zm-6.113 32.277a.818.818 0 00-.602.244.785.785 0 00-.244.602v11.015c0 .239.081.44.244.602a.818.818 0 00.602.244c.25 0 .45-.081.602-.244a.818.818 0 00.244-.602v-3.564h2.408c.803 0 1.519-.173 2.148-.52a3.66 3.66 0 001.48-1.448c.358-.618.537-1.323.537-2.115 0-.813-.179-1.54-.537-2.18a3.707 3.707 0 00-1.48-1.497c-.63-.358-1.345-.537-2.148-.537zm10.137 0a.818.818 0 00-.602.244.785.785 0 00-.244.602v11.015c0 .239.081.44.244.602a.818.818 0 00.602.244c.25 0 .45-.081.602-.244a.818.818 0 00.244-.602v-4.05h2.376l2.798 4.489a.822.822 0 00.732.407c.25 0 .444-.07.586-.212a.751.751 0 00.228-.553.998.998 0 00-.163-.537l-2.489-4.003a3.66 3.66 0 001.594-1.35c.39-.596.586-1.28.586-2.05 0-.78-.18-1.475-.538-2.082a3.585 3.585 0 00-1.48-1.416c-.629-.336-1.344-.504-2.147-.504zm10.296 0a.818.818 0 00-.602.244.786.786 0 00-.244.602v11.015c0 .239.082.44.244.602a.818.818 0 00.602.244c.25 0 .45-.081.602-.244a.818.818 0 00.244-.602v-11.015c0-.25-.082-.45-.244-.602a.784.784 0 00-.602-.244zm4.941 0a.818.818 0 00-.602.244c-.152.152-.228.353-.228.602v11.015c0 .25.076.455.228.618a.848.848 0 00.602.228c.25 0 .45-.081.602-.244a.818.818 0 00.244-.602v-8.884l7.094 9.437a.642.642 0 00.277.228c.13.043.254.065.374.065a.79.79 0 00.585-.228.836.836 0 00.245-.618v-11.015c0-.25-.081-.45-.245-.602a.763.763 0 00-.585-.244.818.818 0 00-.602.244.786.786 0 00-.244.602v8.9l-7.094-9.437a.848.848 0 00-.293-.211.74.74 0 00-.358-.098zm12.969 0a.87.87 0 00-.619.228.674.674 0 00-.211.553c-.01.217.055.39.195.52.142.13.342.196.602.196h7.126l-7.956 9.843a.807.807 0 00-.162.505c0 .228.076.429.227.602.152.173.353.26.602.26h8.591c.25 0 .45-.065.602-.195.152-.141.228-.331.228-.57a.646.646 0 00-.244-.504.793.793 0 00-.586-.228H98.31l7.988-9.876a.776.776 0 00.18-.488.799.799 0 00-.245-.586c-.152-.173-.358-.26-.618-.26zm-37.497 1.562h2.408c.737 0 1.345.25 1.822.748.477.5.716 1.134.716 1.904 0 .737-.239 1.345-.716 1.822-.477.467-1.085.7-1.822.7h-2.408zm10.137 0h2.083c.738 0 1.344.228 1.822.683.477.456.716 1.042.716 1.757 0 .662-.239 1.204-.716 1.627-.478.412-1.084.619-1.822.619H69.86z"/>
    <rect width="18.211" height="13.162" x="73.365" y="137.394" fill="#f96771" stroke="#0013a0" stroke-linejoin="round" stroke-width="1.165" rx="6.104"/>
    <path fill="#f96771" stroke="#0013a0" stroke-linejoin="round" stroke-width="1.365" d="M67.905 68.457v34.604l14.53.013h.072l14.53-.013V68.457l-10.085 15.47-4.356-9.447v0h-.25l-4.356 9.446z"/>
    <path fill="#f96771" stroke="#0013a0" stroke-width="1.058" d="M65.47 158.311c-.308.086-.28 6.887 7.48 10.12 2.505 1.043 8.792.156 9.481.046.038-.006.067-.006.067-.006s.03 0 .068.006c.69.11 6.976.997 9.48-.046 8.01-3.337 7.783-10.477 7.451-10.107-2.076 2.318-8.53.53-11.43.391-2.845-.136-4.83.883-5.385 1.236-.11.069-.182.07-.184.07-.002 0-.073-.001-.183-.07-.554-.353-2.54-1.372-5.384-1.236-2.902.138-9.355 1.927-11.431-.391-.01-.012-.02-.016-.03-.013z"/>
    <path fill="#0013a0" d="M66.152 158.851l-.837.647s3.74 4.886 9.828 4.529h.002c2.86-.17 4.378.034 5.273.28.895.244 1.185.569 1.84.683l.013.002c.157.023.227.014.227.014s.072.009.229-.014l.012-.002c.654-.114.944-.44 1.84-.684.894-.245 2.414-.448 5.274-.28 6.087.358 9.83-4.528 9.83-4.528l-.84-.647s-3.431 4.442-8.927 4.12c-2.932-.174-4.573.028-5.617.313-1.038.284-1.463.611-1.728.66l-.073.003-.072-.002c-.266-.05-.692-.377-1.729-.66-1.044-.286-2.683-.488-5.615-.315-5.496.323-8.93-4.119-8.93-4.119z"/>
  </g>
</svg>
